<svg width="366" height="138" viewBox="0 0 366 138" fill="none" xmlns="http://www.w3.org/2000/svg">
<path d="M97.5075 81.6L100.964 89.28L77.4115 103.744C73.2302 104.853 69.2195 105.579 65.3795 105.92C61.5395 106.347 57.4008 106.56 52.9635 106.56C42.7235 106.56 33.6355 104.384 25.6995 100.032C17.7635 95.68 11.6195 89.7067 7.2675 82.112C2.9155 74.432 0.739501 65.728 0.739501 56C0.739501 46.016 3.98217 36.8 10.4675 28.352C16.9528 19.8187 25.0168 13.12 34.6595 8.256C44.3875 3.30666 53.6035 0.831993 62.3075 0.831993C67.5982 0.831993 73.8275 1.472 80.9955 2.752C88.1635 4.032 93.4115 5.39733 96.7395 6.84799V37.312H84.7075C77.1982 22.8053 67.2568 15.552 54.8835 15.552C49.5075 15.552 44.6008 17.0453 40.1635 20.032C35.8115 23.0187 32.3555 27.1147 29.7955 32.32C27.2355 37.5253 25.9555 43.3707 25.9555 49.856C25.9555 57.4507 27.1928 64.448 29.6675 70.848C32.2275 77.1627 36.0675 82.24 41.1875 86.08C46.3075 89.8347 52.6222 91.712 60.1315 91.712C60.4728 91.712 62.0515 91.712 64.8675 91.712C67.6835 91.712 70.7982 91.456 74.2115 90.944V65.344L53.6035 60.352L57.8275 52.032H109.54V59.2L97.5075 69.44V81.6ZM162.84 33.728C169.154 33.728 174.786 35.2213 179.736 38.208C184.685 41.1093 188.525 45.12 191.256 50.24C194.072 55.36 195.48 61.0347 195.48 67.264C195.48 74.0053 193.304 80.32 188.951 86.208C184.6 92.0107 179.138 96.6613 172.568 100.16C166.082 103.573 159.81 105.28 153.752 105.28C147.522 105.28 141.89 103.829 136.856 100.928C131.906 97.9413 128.024 93.888 125.208 88.768C122.477 83.648 121.112 77.9733 121.112 71.744C121.112 65.0027 123.288 58.7307 127.64 52.928C131.992 47.04 137.41 42.3893 143.896 38.976C150.466 35.4773 156.781 33.728 162.84 33.728ZM155.416 48.576C151.832 48.576 149.101 50.0267 147.224 52.928C145.432 55.744 144.536 59.968 144.536 65.6C144.536 72.768 145.986 78.7413 148.888 83.52C151.789 88.2133 155.885 90.56 161.176 90.56C164.674 90.56 167.32 89.1093 169.112 86.208C170.989 83.2213 171.928 78.912 171.928 73.28C171.928 66.112 170.477 60.224 167.576 55.616C164.674 50.9227 160.621 48.576 155.416 48.576ZM271.037 47.424C272.487 50.1547 273.213 53.056 273.213 56.128C273.213 61.3333 270.994 66.368 266.557 71.232C262.205 76.0107 256.786 79.6373 250.301 82.112C248.082 84.672 246.973 87.232 246.973 89.792C246.973 90.9867 247.911 92.1813 249.789 93.376C251.666 94.4853 254.61 95.936 258.621 97.728C264.509 100.288 269.031 102.635 272.189 104.768C275.346 106.987 276.925 109.547 276.925 112.448C276.925 115.179 275.218 118.549 271.805 122.56C268.391 126.656 264.125 130.197 259.005 133.184C253.97 136.256 249.063 137.792 244.285 137.792C239.079 137.792 232.893 136.981 225.725 135.36C218.557 133.739 212.583 132.117 207.805 130.496V107.584H215.869C220.05 113.216 224.274 117.483 228.541 120.384C232.893 123.371 237.799 124.864 243.261 124.864C246.077 124.864 248.423 124.224 250.301 122.944C252.263 121.749 253.245 120.469 253.245 119.104C253.245 117.141 252.093 115.392 249.789 113.856C247.57 112.405 244.114 110.613 239.421 108.48C234.386 106.261 230.589 104.299 228.029 102.592C225.469 100.8 224.189 98.752 224.189 96.448C224.189 94.4 225.725 92.3093 228.797 90.176C231.954 88.0427 235.709 86.1653 240.061 84.544C238.354 84.7147 237.074 84.8 236.221 84.8C231.015 84.8 226.237 83.776 221.885 81.728C217.618 79.68 214.247 76.9493 211.773 73.536C209.298 70.0373 208.061 66.3253 208.061 62.4C208.061 57.536 209.853 52.8853 213.437 48.448C217.021 44.0107 221.671 40.4693 227.389 37.824C233.106 35.0933 238.951 33.728 244.925 33.728C251.751 33.728 257.767 35.4347 262.973 38.848H284.093L284.221 47.424H271.037ZM243.773 70.208C246.503 70.208 248.594 69.568 250.045 68.288C251.581 66.9227 252.349 64.9173 252.349 62.272C252.349 58.0907 250.983 54.8053 248.253 52.416C245.607 49.9413 242.066 48.704 237.629 48.704C231.997 48.704 229.181 51.2213 229.181 56.256C229.181 60.352 230.503 63.7227 233.149 66.368C235.879 68.928 239.421 70.208 243.773 70.208ZM332.84 33.728C339.154 33.728 344.786 35.2213 349.736 38.208C354.685 41.1093 358.525 45.12 361.256 50.24C364.072 55.36 365.48 61.0347 365.48 67.264C365.48 74.0053 363.304 80.32 358.951 86.208C354.6 92.0107 349.138 96.6613 342.568 100.16C336.082 103.573 329.81 105.28 323.752 105.28C317.522 105.28 311.89 103.829 306.856 100.928C301.906 97.9413 298.024 93.888 295.208 88.768C292.477 83.648 291.112 77.9733 291.112 71.744C291.112 65.0027 293.288 58.7307 297.64 52.928C301.992 47.04 307.41 42.3893 313.896 38.976C320.466 35.4773 326.781 33.728 332.84 33.728ZM325.416 48.576C321.832 48.576 319.101 50.0267 317.224 52.928C315.432 55.744 314.536 59.968 314.536 65.6C314.536 72.768 315.986 78.7413 318.888 83.52C321.789 88.2133 325.885 90.56 331.176 90.56C334.674 90.56 337.32 89.1093 339.112 86.208C340.989 83.2213 341.928 78.912 341.928 73.28C341.928 66.112 340.477 60.224 337.576 55.616C334.674 50.9227 330.621 48.576 325.416 48.576Z" fill="#010101" style="fill:#010101;fill:color(display-p3 0.0039 0.0039 0.0039);fill-opacity:1;"/>
</svg>
