<svg width="586" height="114" viewBox="0 0 586 114" fill="none" xmlns="http://www.w3.org/2000/svg">
<path d="M101.216 112H73.44L48.736 67.712L43.104 64.256L46.304 57.984H52.192C56.8 57.984 60.4267 56.576 63.072 53.76C65.7173 50.944 67.04 46.976 67.04 41.856C67.04 35.8827 65.4187 31.0187 62.176 27.264C59.0187 23.424 54.368 21.504 48.224 21.504C44.384 21.504 40.8 22.6987 37.472 25.088V99.712L51.68 103.808L47.584 112.128H2.272V104.96L14.304 94.848V23.808L0.0960002 19.84L4.32 11.52H25.568C32.992 11.52 40.288 11.264 47.456 10.752C52.576 10.4107 56.416 10.24 58.976 10.24C65.5467 10.24 71.3493 11.4347 76.384 13.824C81.504 16.128 85.4293 19.2853 88.16 23.296C90.976 27.3067 92.384 31.7867 92.384 36.736C92.384 42.7093 89.7387 48.256 84.448 53.376C79.1573 58.496 72.7147 62.336 65.12 64.896L75.36 67.84L92 97.536L105.312 103.68L101.216 112ZM153.527 41.728C162.487 41.728 169.399 45.1413 174.263 51.968C179.212 58.7947 181.602 68.2667 181.431 80.384H135.351C136.204 85.5893 138.039 89.7707 140.855 92.928C143.671 96 147.34 97.536 151.863 97.536C157.836 97.536 166.412 94.5493 177.591 88.576L181.431 95.872L161.975 111.36C156.94 112.64 151.095 113.28 144.439 113.28C138.21 113.28 132.578 111.829 127.543 108.928C122.594 105.941 118.711 101.888 115.895 96.768C113.164 91.648 111.799 85.9733 111.799 79.744C111.799 73.0027 113.975 66.7307 118.327 60.928C122.679 55.04 128.098 50.3893 134.583 46.976C141.154 43.4773 147.468 41.728 153.527 41.728ZM146.487 56.576C142.732 56.576 139.916 57.856 138.039 60.416C136.162 62.8907 135.138 66.7307 134.967 71.936H159.415C158.732 66.6453 157.452 62.7627 155.575 60.288C153.783 57.8133 150.711 56.576 146.359 56.576H146.487ZM276.68 112H247.624V102.528L235.336 112.256C232.605 112.939 229.448 113.28 225.864 113.28C220.232 113.28 215.155 111.829 210.632 108.928C206.195 105.941 202.696 101.888 200.136 96.768C197.661 91.648 196.424 85.9733 196.424 79.744C196.424 73.0027 198.6 66.7307 202.952 60.928C207.304 55.04 212.723 50.3893 219.208 46.976C225.779 43.4773 232.093 41.728 238.152 41.728C241.565 41.728 244.723 42.5813 247.624 44.288V25.216L236.232 17.664V10.496L261.32 0.255997H269.384V99.84L280.904 103.68L276.68 112ZM233.672 96.128C238.707 96.128 243.357 94.8907 247.624 92.416V67.968C247.112 64.64 245.405 61.9093 242.504 59.776C239.603 57.6427 235.677 56.576 230.728 56.576C223.219 56.576 219.464 62.2933 219.464 73.728C219.464 80.2133 220.659 85.5893 223.048 89.856C225.523 94.0373 229.064 96.128 233.672 96.128ZM362.372 50.176L329.604 112H313.476L294.404 65.664L281.988 58.496V51.328L310.276 40.576L315.14 59.904L329.092 93.952L344.58 63.744L326.276 51.328L330.372 43.008H362.372V50.176ZM411.152 41.728C420.112 41.728 427.024 45.1413 431.888 51.968C436.837 58.7947 439.227 68.2667 439.056 80.384H392.976C393.829 85.5893 395.664 89.7707 398.48 92.928C401.296 96 404.965 97.536 409.488 97.536C415.461 97.536 424.037 94.5493 435.216 88.576L439.056 95.872L419.6 111.36C414.565 112.64 408.72 113.28 402.064 113.28C395.835 113.28 390.203 111.829 385.168 108.928C380.219 105.941 376.336 101.888 373.52 96.768C370.789 91.648 369.424 85.9733 369.424 79.744C369.424 73.0027 371.6 66.7307 375.952 60.928C380.304 55.04 385.723 50.3893 392.208 46.976C398.779 43.4773 405.093 41.728 411.152 41.728ZM404.112 56.576C400.357 56.576 397.541 57.856 395.664 60.416C393.787 62.8907 392.763 66.7307 392.592 71.936H417.04C416.357 66.6453 415.077 62.7627 413.2 60.288C411.408 57.8133 408.336 56.576 403.984 56.576H404.112ZM494.497 59.904C491.425 59.904 488.353 61.2693 485.281 64V98.56L504.737 103.68L500.641 112H452.129V104.832L463.521 95.232V66.176L452.129 59.008V51.84L478.753 40.576L483.617 54.784L495.265 42.752C497.057 42.0693 499.148 41.728 501.537 41.728C505.974 41.728 509.772 42.752 512.929 44.8C516.172 46.848 518.433 49.664 519.713 53.248L507.425 68.608H499.361C499.276 65.536 498.849 63.36 498.081 62.08C497.313 60.7147 496.118 60.032 494.497 60.032V59.904ZM562.124 95.744C562.124 94.1227 561.015 92.5013 558.796 90.88C556.577 89.1733 553.164 87.04 548.556 84.48C544.033 81.92 540.407 79.744 537.676 77.952C534.945 76.0747 532.556 73.984 530.508 71.68C528.545 69.2907 527.564 66.7307 527.564 64C527.564 60.928 529.015 57.6427 531.916 54.144C534.903 50.6453 538.529 47.7013 542.796 45.312C547.063 42.9227 550.988 41.728 554.572 41.728C558.924 41.728 564.001 42.24 569.804 43.264C575.692 44.2027 579.959 45.2693 582.604 46.464V67.84H574.54C572.236 63.5733 569.463 60.2453 566.22 57.856C563.063 55.4667 559.777 54.272 556.364 54.272C554.657 54.272 553.292 54.784 552.268 55.808C551.244 56.7467 550.732 57.8987 550.732 59.264C550.732 61.056 551.841 62.8053 554.06 64.512C556.364 66.2187 559.991 68.48 564.94 71.296C571.511 74.88 576.545 78.1227 580.044 81.024C583.628 83.9253 585.42 87.2533 585.42 91.008C585.42 94.1653 583.884 97.4933 580.812 100.992C577.825 104.405 574.113 107.307 569.676 109.696C565.324 112.085 561.313 113.28 557.644 113.28C552.951 113.28 547.361 112.811 540.876 111.872C534.476 110.848 529.911 109.739 527.18 108.544V86.4H535.244C537.804 90.9227 540.961 94.464 544.716 97.024C548.471 99.4987 552.183 100.736 555.852 100.736C557.729 100.736 559.223 100.267 560.332 99.328C561.527 98.304 562.124 97.1093 562.124 95.744Z" fill="#07006C" style="fill:#07006C;fill:color(display-p3 0.0283 0.0000 0.4250);fill-opacity:1;"/>
</svg>
