<svg width="386" height="143" viewBox="0 0 386 143" fill="none" xmlns="http://www.w3.org/2000/svg">
<path d="M53.145 88.88C53.145 86.32 52.121 83.888 50.073 81.584C48.1103 79.28 45.593 77.1467 42.521 75.184C39.449 73.2213 35.353 70.832 30.233 68.016C23.9183 64.5173 18.7557 61.4453 14.745 58.8C10.8197 56.1547 7.49167 53.0827 4.761 49.584C2.03033 46.0853 0.665 42.2453 0.665 38.064C0.665 33.7973 2.62767 29.232 6.553 24.368C10.4783 19.4187 15.257 15.28 20.889 11.952C26.6063 8.53866 31.8543 6.83199 36.633 6.83199C42.3503 6.83199 49.049 7.472 56.729 8.752C64.409 10.032 70.041 11.3973 73.625 12.848V40.88H61.593C58.009 33.968 54.041 28.592 49.689 24.752C45.4223 20.912 40.8997 18.992 36.121 18.992C32.7077 18.992 30.0197 20.1013 28.057 22.32C26.0943 24.4533 25.113 27.184 25.113 30.512C25.113 33.2427 26.137 35.8453 28.185 38.32C30.3183 40.7093 32.921 42.928 35.993 44.976C39.1503 46.9387 43.3743 49.3707 48.665 52.272C54.8943 55.6853 59.929 58.672 63.769 61.232C67.609 63.792 70.8517 66.7787 73.497 70.192C76.1423 73.6053 77.465 77.36 77.465 81.456C77.465 85.7227 75.3743 90.3307 71.193 95.28C67.0117 100.144 61.8917 104.283 55.833 107.696C49.8597 111.024 44.3983 112.688 39.449 112.688C33.4757 112.688 26.3077 112.048 17.945 110.768C9.66767 109.488 3.69433 108.123 0.0250001 106.672V78.64H12.057C15.8117 85.552 20.1637 90.928 25.113 94.768C30.0623 98.608 35.0543 100.528 40.089 100.528C44.0143 100.528 47.1717 99.4187 49.561 97.2C51.9503 94.896 53.145 92.1227 53.145 88.88ZM131.378 111.28C127.879 111.28 124.722 110.384 121.906 108.592V129.072L141.362 134.192L137.266 142.512H88.754V135.344L100.146 125.744V64.176L88.754 57.008V49.84L115.378 38.576L120.37 53.552L136.37 40.752C139.101 40.0693 142.215 39.728 145.714 39.728C150.919 39.728 155.613 41.2213 159.794 44.208C164.061 47.1093 167.346 51.12 169.65 56.24C172.039 61.36 173.234 67.0347 173.234 73.264C173.234 80.0053 171.058 86.32 166.706 92.208C162.354 98.0107 156.893 102.661 150.322 106.16C143.837 109.573 137.565 111.28 131.506 111.28H131.378ZM137.522 57.52C134.706 57.52 132.018 57.8613 129.458 58.544C126.983 59.2267 124.423 60.464 121.778 62.256V82.48C121.778 86.4907 123.229 89.8613 126.13 92.592C129.117 95.2373 133.341 96.56 138.802 96.56C142.471 96.56 145.245 95.1093 147.122 92.208C149.085 89.3067 150.066 85.04 150.066 79.408C150.066 73.008 148.999 67.76 146.866 63.664C144.733 59.568 141.661 57.52 137.65 57.52H137.522ZM225.702 110H185.254V102.832L196.646 93.232V63.536L185.254 55.984V48.816L210.342 38.576H218.406V97.84L229.926 101.68L225.702 110ZM207.398 0.0479965C211.067 0.0479965 214.054 1.24266 216.358 3.632C218.747 5.936 219.942 8.83733 219.942 12.336C219.942 14.8107 219.089 17.1147 217.382 19.248C215.675 21.3813 213.542 23.088 210.982 24.368C208.422 25.648 205.947 26.288 203.558 26.288C199.974 26.288 196.987 25.136 194.598 22.832C192.294 20.4427 191.142 17.4987 191.142 14C191.142 11.5253 191.995 9.22133 193.702 7.088C195.409 4.95466 197.499 3.24799 199.974 1.96799C202.534 0.687996 205.009 0.0479965 207.398 0.0479965ZM279.872 57.904C276.8 57.904 273.728 59.2693 270.656 62V96.56L290.112 101.68L286.016 110H237.504V102.832L248.896 93.232V64.176L237.504 57.008V49.84L264.128 38.576L268.992 52.784L280.64 40.752C282.432 40.0693 284.523 39.728 286.912 39.728C291.349 39.728 295.147 40.752 298.304 42.8C301.547 44.848 303.808 47.664 305.088 51.248L292.8 66.608H284.736C284.651 63.536 284.224 61.36 283.456 60.08C282.688 58.7147 281.493 58.032 279.872 58.032V57.904ZM352.402 39.728C358.717 39.728 364.349 41.2213 369.298 44.208C374.247 47.1093 378.087 51.12 380.818 56.24C383.634 61.36 385.042 67.0347 385.042 73.264C385.042 80.0053 382.866 86.32 378.514 92.208C374.162 98.0107 368.701 102.661 362.13 106.16C355.645 109.573 349.373 111.28 343.314 111.28C337.085 111.28 331.453 109.829 326.418 106.928C321.469 103.941 317.586 99.888 314.77 94.768C312.039 89.648 310.674 83.9733 310.674 77.744C310.674 71.0027 312.85 64.7307 317.202 58.928C321.554 53.04 326.973 48.3893 333.458 44.976C340.029 41.4773 346.343 39.728 352.402 39.728ZM344.978 54.576C341.394 54.576 338.663 56.0267 336.786 58.928C334.994 61.744 334.098 65.968 334.098 71.6C334.098 78.768 335.549 84.7413 338.45 89.52C341.351 94.2133 345.447 96.56 350.738 96.56C354.237 96.56 356.882 95.1093 358.674 92.208C360.551 89.2213 361.49 84.912 361.49 79.28C361.49 72.112 360.039 66.224 357.138 61.616C354.237 56.9227 350.183 54.576 344.978 54.576Z" fill="#FF0000" style="fill:#FF0000;fill:color(display-p3 1.0000 0.0000 0.0000);fill-opacity:1;"/>
</svg>
