<svg width="495" height="115" viewBox="0 0 495 115" fill="none" xmlns="http://www.w3.org/2000/svg">
<path d="M64.748 100.992L82.028 73.472L90.092 76.8V114.304L80.108 112H0.236V100.992L61.292 22.4H27.756L12.14 47.36L4.204 43.904V9.088L14.06 11.392H91.372V22.4L30.188 100.992H64.748ZM146.161 41.472C155.377 41.472 162.502 44.9707 167.537 51.968C172.657 58.88 175.132 68.6507 174.961 81.28H129.265C130.204 85.8027 131.953 89.4293 134.513 92.16C137.073 94.8053 140.401 96.128 144.497 96.128C150.556 96.128 159.388 93.5253 170.993 88.32L174.833 96.256L156.401 111.104C151.025 112.555 144.582 113.28 137.073 113.28C130.673 113.28 124.913 111.829 119.793 108.928C114.673 105.941 110.662 101.888 107.761 96.768C104.945 91.648 103.537 85.9307 103.537 79.616C103.537 72.7893 105.756 66.4747 110.193 60.672C114.63 54.784 120.177 50.1333 126.833 46.72C133.489 43.2213 139.932 41.472 146.161 41.472ZM139.249 57.472C135.75 57.472 133.105 58.6667 131.313 61.056C129.606 63.36 128.668 66.944 128.497 71.808H151.281C150.769 66.944 149.617 63.36 147.825 61.056C146.033 58.6667 143.174 57.472 139.249 57.472ZM311.155 111.616H280.691V69.248C280.691 66.176 280.179 64 279.155 62.72C278.216 61.44 276.51 60.8 274.035 60.8C270.366 60.8 266.739 61.952 263.155 64.256V98.944L273.651 102.4L268.915 111.744H239.475V69.376C239.475 66.304 238.963 64.128 237.939 62.848C237 61.568 235.294 60.928 232.819 60.928C229.15 60.928 225.523 62.08 221.939 64.384V99.072L232.435 102.528L227.699 111.872H186.867V103.68L198.259 93.952V67.072L186.867 59.776V51.584L215.027 40.32L220.147 54.656L234.995 42.496C237.043 41.8133 239.39 41.472 242.035 41.472C247.07 41.472 251.294 42.5813 254.707 44.8C258.206 47.0187 260.638 50.0907 262.003 54.016L276.211 42.496C278.259 41.8133 280.606 41.472 283.251 41.472C289.736 41.472 294.856 43.264 298.611 46.848C302.451 50.3467 304.371 55.1253 304.371 61.184V98.944L315.891 102.272L311.155 111.616ZM375.883 41.472C381.344 41.472 386.251 42.9653 390.603 45.952C394.955 48.8533 398.326 52.9067 400.715 58.112C403.19 63.232 404.427 68.9067 404.427 75.136C404.427 81.8773 402.208 88.192 397.771 94.08C393.334 99.968 387.744 104.661 381.003 108.16C374.347 111.573 367.904 113.28 361.675 113.28C358.347 113.28 355.19 112.64 352.203 111.36C349.302 110.08 346.699 108.288 344.395 105.984L338.379 112H329.419V26.752L318.027 19.2V11.008L344.011 0.255997H353.099V53.248L366.539 42.496C369.27 41.8133 372.384 41.472 375.883 41.472ZM369.099 97.28C376.011 97.28 379.467 91.904 379.467 81.152C379.467 74.8373 378.443 69.6747 376.395 65.664C374.432 61.568 371.488 59.52 367.563 59.52C362.358 59.52 357.536 60.8 353.099 63.36V84.096C353.099 87.8507 354.464 91.008 357.195 93.568C360.011 96.0427 363.979 97.28 369.099 97.28ZM460.911 41.472C467.396 41.472 473.199 42.9653 478.319 45.952C483.439 48.8533 487.407 52.9067 490.223 58.112C493.124 63.232 494.575 68.9067 494.575 75.136C494.575 81.8773 492.356 88.192 487.919 94.08C483.482 99.968 477.892 104.661 471.151 108.16C464.495 111.573 458.052 113.28 451.823 113.28C445.423 113.28 439.663 111.829 434.543 108.928C429.423 105.941 425.412 101.888 422.511 96.768C419.695 91.648 418.287 85.9307 418.287 79.616C418.287 72.7893 420.506 66.4747 424.943 60.672C429.38 54.784 434.927 50.1333 441.583 46.72C448.239 43.2213 454.682 41.472 460.911 41.472ZM453.487 57.472C450.415 57.472 448.026 58.8373 446.319 61.568C444.698 64.2133 443.887 68.1813 443.887 73.472C443.887 80.384 445.21 86.1013 447.855 90.624C450.586 95.0613 454.383 97.28 459.247 97.28C462.404 97.28 464.794 95.9147 466.415 93.184C468.122 90.4533 468.975 86.4427 468.975 81.152C468.975 74.24 467.61 68.5653 464.879 64.128C462.234 59.6907 458.436 57.472 453.487 57.472Z" fill="#FF00D0" style="fill:#FF00D0;fill:color(display-p3 1.0000 0.0000 0.8167);fill-opacity:1;"/>
</svg>
